<svg xmlns="http://www.w3.org/2000/svg" width="13.793" height="13.943" viewBox="0 0 13.793 13.943">
  <path id="路径_22436" data-name="路径 22436" d="M15.667,15.6a1.33,1.33,0,0,1,.549.118l3.571,1.618a1.33,1.33,0,0,1,.781,1.212v4.273a1.33,1.33,0,0,1-1.919,1.194L15.078,22.25a1.33,1.33,0,0,1-.742-1.193V16.928a1.33,1.33,0,0,1,1.33-1.33Zm11.131,0a1.33,1.33,0,0,1,1.33,1.33v4.129a1.33,1.33,0,0,1-.742,1.193l-3.572,1.762A1.33,1.33,0,0,1,21.9,22.818V18.545a1.33,1.33,0,0,1,.781-1.211l3.572-1.618A1.33,1.33,0,0,1,26.8,15.6Zm-11.131,1.33v4.129l3.572,1.761V18.545l-3.572-1.618Zm11.131,0-3.572,1.617v4.273L26.8,21.057v-4.13Zm-4.912-6.552,3.887,2.194a1.33,1.33,0,0,1-.107,2.372l-3.887,1.751a1.33,1.33,0,0,1-1.093,0L16.8,14.943a1.33,1.33,0,0,1-.107-2.372l3.887-2.194a1.33,1.33,0,0,1,1.307,0Zm-.654,1.16L17.346,13.73l3.887,1.75,3.887-1.75Z" transform="translate(-14.336 -10.205)" fill=""/>
</svg>
